<?xml version="1.0" standalone="no"?>
<!DOCTYPE svg PUBLIC "-//W3C//DTD SVG 20010904//EN"
 "http://www.w3.org/TR/2001/REC-SVG-20010904/DTD/svg10.dtd">
<svg version="1.0" xmlns="http://www.w3.org/2000/svg"
 width="586.000000pt" height="586.000000pt" viewBox="0 0 586.000000 586.000000"
 preserveAspectRatio="xMidYMid meet">
<metadata>
Created by potrace 1.11, written by Peter Selinger 2001-2013
</metadata>
<g transform="translate(0.000000,586.000000) scale(0.100000,-0.100000)"
fill="#000000" stroke="none">
<path d="M2940 5850 c-25 -3 -51 -9 -57 -13 -8 -5 -13 -3 -13 3 0 14 -29 6
-85 -22 -21 -11 -57 -22 -80 -24 -61 -7 -68 -9 -93 -22 -12 -7 -20 -17 -17
-21 6 -10 -61 -66 -78 -66 -6 0 -22 -22 -36 -50 -19 -36 -42 -60 -84 -88 -49
-33 -56 -42 -51 -63 l6 -24 -856 0 -856 0 0 -2300 0 -2300 548 -2 547 -3 1
-25 c0 -14 4 -40 8 -57 4 -18 8 -36 8 -40 0 -5 15 -27 34 -50 35 -42 41 -78
19 -113 -4 -7 -8 -37 -10 -68 -1 -32 -7 -76 -14 -99 -6 -24 -9 -63 -5 -88 5
-39 2 -52 -19 -84 -25 -37 -26 -46 -31 -181 l-1 -45 1195 0 1195 0 -1 76 c-1
49 -8 87 -18 108 -10 18 -19 44 -21 59 -2 15 -8 46 -13 70 -5 23 -7 42 -4 42
3 0 -3 9 -14 21 -17 19 -19 39 -20 190 -1 167 -1 168 20 157 20 -11 20 -10 4
9 -10 11 -19 32 -20 46 -1 15 -6 27 -10 27 -4 0 -8 7 -8 15 0 8 7 15 15 15 8
0 15 5 15 10 0 7 205 10 595 10 l595 0 0 2300 0 2300 -875 0 c-500 0 -875 4
-875 9 0 5 -9 11 -21 14 -12 3 -18 10 -15 16 4 5 -4 20 -16 32 -13 12 -17 19
-10 15 6 -4 12 -3 12 2 0 6 -7 12 -15 16 -8 3 -15 12 -15 21 0 17 -75 75 -97
75 -8 0 -13 6 -12 13 2 6 -5 28 -15 48 -14 27 -33 43 -80 65 -54 27 -71 30
-141 29 -44 -1 -91 -5 -105 -9 l-25 -7 26 15 c14 8 37 13 52 12 14 -2 24 1 21
5 -11 18 -41 25 -84 19z m-96 -35 c-25 -19 -40 -19 -24 0 7 8 20 15 28 15 13
0 12 -3 -4 -15z m256 -24 c0 -5 -11 -11 -24 -13 -15 -3 -23 -1 -20 6 5 13 44
19 44 7z m-420 -46 c-14 -7 -27 -11 -30 -9 -6 7 22 24 40 23 9 0 5 -6 -10 -14z
m536 3 c-8 14 -5 15 19 6 8 -4 22 -19 31 -35 l15 -29 -46 22 c-25 12 -45 28
-45 36 0 12 3 12 17 1 11 -10 14 -10 9 -1z m164 -148 c0 -5 -2 -10 -4 -10 -3
0 -8 5 -11 10 -3 6 -1 10 4 10 6 0 11 -4 11 -10z m-1117 -387 c-11 -62 -19
-169 -15 -177 6 -10 7 -21 18 -158 5 -63 4 -88 -5 -89 -6 -1 -15 -2 -20 -3
-19 -2 -32 -23 -37 -62 -3 -21 -7 -52 -9 -67 -7 -50 67 -217 96 -217 11 0 16
-5 13 -14 -9 -24 23 -47 51 -36 19 7 27 6 33 -8 20 -38 53 -147 58 -190 3 -26
7 -48 9 -50 2 -2 -11 -39 -30 -83 -31 -74 -80 -134 -110 -134 -6 0 -22 -7 -36
-16 -13 -8 -41 -23 -63 -33 -28 -13 -35 -20 -25 -27 15 -9 8 -19 -16 -23 -9
-1 -20 -8 -25 -15 -4 -8 -20 -15 -35 -16 -15 -2 -35 -11 -44 -19 -10 -9 -21
-16 -26 -16 -5 0 0 6 11 14 35 26 7 27 -52 2 -33 -14 -54 -25 -49 -26 10 0
-15 -20 -26 -20 -3 0 -4 10 -2 23 9 44 -47 63 -71 25 -8 -13 -8 -23 2 -38 16
-26 15 -30 -8 -30 -10 0 -40 -7 -66 -16 -26 -9 -59 -18 -73 -21 -34 -6 -53
-22 -46 -42 3 -11 -12 -30 -43 -57 -46 -40 -64 -51 -59 -36 1 4 5 6 9 5 4 -2
5 3 2 10 -2 7 4 22 16 32 11 10 20 22 20 26 0 5 -21 -14 -46 -41 -38 -41 -44
-52 -34 -64 15 -19 3 -63 -13 -47 -6 6 -14 11 -19 11 -12 0 -88 -171 -88 -199
0 -23 -18 -85 -37 -131 -8 -18 -7 -16 -17 -65 -5 -22 -9 -67 -11 -100 -3 -72
-3 -74 -14 -57 -13 21 -32 -102 -27 -180 2 -38 1 -68 -3 -68 -4 0 -8 -6 -8
-12 0 -7 -3 -24 -6 -38 -9 -39 -27 -132 -33 -165 -2 -16 -13 -64 -23 -105 -11
-41 -22 -88 -24 -105 -3 -16 -9 -45 -12 -62 -7 -31 8 -49 17 -21 3 9 6 9 11 1
4 -7 -2 -21 -14 -31 -18 -17 -19 -23 -9 -43 8 -14 10 -43 7 -77 -6 -52 8 -65
16 -15 2 13 6 25 9 28 3 4 3 -11 0 -32 -3 -21 -6 -55 -6 -76 -1 -32 -3 -35
-13 -21 -7 9 -10 21 -6 27 3 6 2 7 -4 4 -6 -4 -8 -19 -6 -34 2 -16 7 -91 10
-168 3 -77 8 -134 10 -127 10 27 18 9 17 -39 0 -27 3 -52 6 -54 4 -2 5 -26 3
-52 -7 -80 -7 -86 1 -128 4 -22 9 -49 10 -60 9 -69 30 -126 58 -154 l30 -31
-241 0 -241 0 0 2080 0 2080 704 0 703 0 -4 -27z m2747 -2054 l0 -2079 -484 0
c-412 0 -485 2 -489 14 -5 11 8 18 48 26 30 6 57 11 60 10 3 0 18 6 33 13 37
19 116 31 107 16 -7 -10 31 -8 110 5 11 2 30 4 43 5 13 0 21 5 18 10 -8 12 19
22 72 28 25 3 42 1 42 -5 0 -6 10 -9 23 -7 12 2 42 6 67 9 83 11 103 18 127
44 12 14 23 33 23 43 0 11 5 19 11 19 13 0 37 58 50 123 16 76 17 205 3 262
-18 69 -23 203 -9 209 7 2 10 30 10 72 -2 53 -8 81 -29 122 -15 30 -30 77 -33
105 -4 29 -18 72 -33 97 -30 48 -75 163 -111 275 -12 39 -35 97 -51 130 -16
33 -38 85 -48 115 -10 30 -19 47 -19 37 -1 -24 -23 -17 -27 9 -6 32 4 48 20
35 23 -19 1 60 -35 130 -28 54 -49 80 -35 44 3 -9 0 -15 -10 -15 -15 0 -31 33
-41 85 -6 27 -5 29 10 16 21 -16 21 -10 4 32 -8 18 -13 35 -13 39 1 4 -7 16
-16 27 -33 39 -48 68 -43 83 20 52 -116 209 -232 267 -50 25 -63 26 -63 6 0
-17 -25 -20 -35 -5 -3 6 -1 10 4 10 28 0 6 17 -36 28 -104 27 -154 45 -150 56
3 10 -17 21 -120 67 -44 19 -61 11 -20 -9 19 -10 20 -11 2 -8 -11 1 -42 24
-70 50 -72 69 -123 100 -140 86 -10 -8 -16 -7 -24 7 -7 12 -10 13 -11 4 0 -11
-3 -11 -15 -1 -8 7 -15 9 -15 5 0 -16 -51 51 -67 88 -9 20 -23 37 -31 37 -8 0
-11 7 -8 18 4 11 -5 33 -22 57 -36 48 -34 87 11 201 29 75 33 81 61 82 41 1
47 9 112 142 42 86 51 137 35 197 -10 36 -17 44 -44 51 -23 6 -31 14 -30 28 1
10 5 48 9 84 3 36 8 68 10 72 2 3 6 46 9 95 4 75 8 104 21 156 1 4 2 11 3 15
0 5 339 9 751 9 l750 0 0 -2078z m-1630 781 c9 -16 8 -18 -5 -14 -8 3 -13 10
-10 14 3 5 -1 11 -7 13 -10 4 -10 6 -1 6 7 1 17 -8 23 -19z m-990 -5 c-7 -9
-15 -13 -17 -11 -7 7 7 26 19 26 6 0 6 -6 -2 -15z m-22 -40 c-3 -3 -9 2 -12
12 -6 14 -5 15 5 6 7 -7 10 -15 7 -18z m1000 -30 c-3 -3 -9 2 -12 12 -6 14 -5
15 5 6 7 -7 10 -15 7 -18z m113 -92 c13 -16 12 -17 -3 -4 -17 13 -22 21 -14
21 2 0 10 -8 17 -17z m-1118 -8 c-3 -9 -8 -14 -10 -11 -3 3 -2 9 2 15 9 16 15
13 8 -4z m-18 -25 c3 -5 1 -10 -4 -10 -6 0 -11 5 -11 10 0 6 2 10 4 10 3 0 8
-4 11 -10z m-521 -62 c-3 -5 -10 -6 -15 -3 -5 4 -9 2 -9 -3 0 -5 -7 -9 -16 -9
-15 0 -15 1 -1 12 19 13 49 16 41 3z m36 -13 c0 -2 -6 -8 -13 -14 -10 -8 -14
-7 -14 2 0 8 6 14 14 14 7 0 13 -1 13 -2z m2355 -125 c10 -11 15 -21 12 -21
-25 -5 -33 -4 -44 4 -17 13 -16 37 0 37 8 0 22 -9 32 -20z m45 -42 c0 -4 -7
-8 -15 -8 -8 0 -15 4 -15 8 0 5 7 9 15 9 8 0 15 -4 15 -9z m-2965 -1009 c-4
-5 -12 -9 -18 -8 -9 0 -8 2 1 6 6 2 9 10 6 15 -4 7 -2 8 5 4 6 -4 9 -12 6 -17z
m31 -5 c1 -9 0 -13 -4 -10 -3 4 -7 14 -8 22 -1 9 0 13 4 10 3 -4 7 -14 8 -22z
m-26 -24 c-8 -5 -19 -10 -25 -10 -5 0 -3 5 5 10 8 5 20 10 25 10 6 0 3 -5 -5
-10z m5 -30 c18 -7 18 -8 -7 -15 -16 -4 -28 -11 -28 -16 0 -5 -4 -9 -10 -9 -5
0 -7 7 -4 15 4 8 14 15 23 15 14 0 14 2 1 10 -18 12 -3 12 25 0z m-19 -172 c4
-7 3 -8 -5 -4 -6 4 -14 0 -17 -8 -3 -9 -11 -16 -17 -16 -5 0 -2 9 8 20 21 23
22 24 31 8z m-41 -78 c1 -10 -2 -17 -6 -14 -4 2 -7 13 -6 24 2 23 10 17 12
-10z m3419 -362 c-3 -4 -11 -5 -19 -1 -21 7 -19 12 4 10 11 0 18 -5 15 -9z
m-2807 -1185 c0 -9 -4 -10 -14 -2 -7 6 -13 12 -13 14 0 1 6 2 13 2 8 0 14 -6
14 -14z"/>
<path d="M974 5176 c-33 -33 -36 -40 -31 -79 17 -126 187 -127 204 -1 4 35 1
46 -23 73 -21 23 -41 34 -71 38 -39 5 -46 2 -79 -31z"/>
<path d="M1585 4987 c-13 -10 -16 -21 -11 -41 8 -33 29 -42 62 -28 28 13 31
43 8 66 -19 20 -35 20 -59 3z"/>
<path d="M1870 4860 c-11 -11 -20 -29 -20 -40 0 -11 9 -29 20 -40 11 -11 29
-20 40 -20 11 0 29 9 40 20 11 11 20 29 20 40 0 11 -9 29 -20 40 -11 11 -29
20 -40 20 -11 0 -29 -9 -40 -20z"/>
<path d="M1294 4726 c-33 -33 -36 -40 -31 -79 6 -46 52 -97 87 -97 13 0 20 -7
20 -20 0 -11 9 -29 20 -40 11 -11 29 -20 40 -20 11 0 29 9 40 20 25 25 25 55
0 80 -16 16 -18 25 -10 45 26 68 -13 132 -87 142 -39 5 -46 2 -79 -31z"/>
<path d="M1725 4575 c-14 -13 -25 -36 -25 -50 0 -33 42 -75 75 -75 33 0 75 42
75 75 0 33 -42 75 -75 75 -14 0 -37 -11 -50 -25z"/>
<path d="M1110 4415 c-26 -32 13 -81 48 -59 34 22 22 74 -18 74 -10 0 -23 -7
-30 -15z"/>
<path d="M1196 4104 c-20 -19 -20 -35 -2 -59 8 -12 20 -16 34 -13 20 6 21 5 7
-15 -8 -12 -15 -32 -15 -45 0 -31 43 -72 75 -72 33 0 75 42 75 75 0 38 -44 78
-80 73 -27 -4 -29 -2 -24 19 12 45 -37 70 -70 37z"/>
<path d="M1445 3775 c-14 -13 -25 -36 -25 -50 0 -33 42 -75 75 -75 33 0 75 42
75 75 0 33 -42 75 -75 75 -14 0 -37 -11 -50 -25z"/>
<path d="M1025 3415 c-14 -13 -25 -36 -25 -50 0 -33 42 -75 75 -75 33 0 75 42
75 75 0 33 -42 75 -75 75 -14 0 -37 -11 -50 -25z"/>
<path d="M1162 3018 c-19 -19 -14 -56 9 -69 29 -15 69 3 69 31 0 41 -50 66
-78 38z"/>
<path d="M1054 2545 c-4 -9 -2 -21 4 -27 15 -15 44 -1 40 19 -4 23 -36 29 -44
8z"/>
<path d="M4673 5100 c-61 -37 -79 -108 -43 -167 38 -63 112 -80 171 -40 60 40
76 105 39 164 -37 61 -108 79 -167 43z"/>
<path d="M3746 5064 c-34 -34 -2 -84 44 -69 29 9 38 55 15 72 -24 17 -40 17
-59 -3z"/>
<path d="M3906 4804 c-9 -8 -16 -24 -16 -34 0 -10 7 -26 16 -34 8 -9 24 -16
34 -16 10 0 26 7 34 16 9 8 16 24 16 34 0 10 -7 26 -16 34 -8 9 -24 16 -34 16
-10 0 -26 -7 -34 -16z"/>
<path d="M4626 4704 c-45 -45 16 -109 67 -70 33 26 11 86 -33 86 -10 0 -26 -7
-34 -16z"/>
<path d="M4249 4531 c-20 -20 -29 -39 -29 -61 0 -22 9 -41 29 -61 40 -40 82
-39 123 1 26 27 30 36 25 68 -13 78 -94 107 -148 53z"/>
<path d="M3705 4425 c-14 -13 -25 -36 -25 -50 0 -14 11 -37 25 -50 13 -14 36
-25 50 -25 14 0 37 11 50 25 14 13 25 36 25 50 0 14 -11 37 -25 50 -13 14 -36
25 -50 25 -14 0 -37 -11 -50 -25z"/>
<path d="M4006 4064 c-9 -8 -16 -23 -16 -33 0 -22 30 -51 53 -51 21 0 47 27
47 50 0 10 -7 26 -16 34 -8 9 -24 16 -34 16 -10 0 -26 -7 -34 -16z"/>
<path d="M4610 3948 c-37 -40 -20 -93 35 -104 60 -11 99 62 55 106 -26 26 -64
25 -90 -2z"/>
<path d="M3914 3866 c-48 -48 -48 -96 2 -142 46 -44 90 -46 134 -6 22 19 33
39 37 69 5 39 2 46 -30 78 -48 48 -95 49 -143 1z"/>
<path d="M4690 3333 c-22 -20 -33 -40 -37 -69 -4 -35 -1 -46 23 -73 21 -23 41
-34 71 -38 39 -5 46 -2 78 30 48 48 49 95 1 143 -44 44 -92 46 -136 7z"/>
<path d="M4766 2644 c-30 -30 -9 -84 33 -84 21 0 51 30 51 52 0 19 -32 48 -53
48 -8 0 -23 -7 -31 -16z"/>
<path d="M4180 3541 c0 -6 5 -13 10 -16 6 -3 10 1 10 9 0 9 -4 16 -10 16 -5 0
-10 -4 -10 -9z"/>
<path d="M2540 5725 c-34 -36 -21 -39 18 -4 18 16 26 29 19 29 -7 0 -24 -11
-37 -25z"/>
</g>
</svg>
